<?xml version="1.0" encoding="UTF-8"?>
<!DOCTYPE svg PUBLIC "-//W3C//DTD SVG 1.1//EN" "http://www.w3.org/Graphics/SVG/1.1/DTD/svg11.dtd">
<!-- Creator: CorelDRAW X7 -->
<svg xmlns="http://www.w3.org/2000/svg" xml:space="preserve" width="1200px" height="57px" version="1.1" style="shape-rendering:geometricPrecision; text-rendering:geometricPrecision; image-rendering:optimizeQuality; fill-rule:evenodd; clip-rule:evenodd"
viewBox="0 0 1330 63"
 xmlns:xlink="http://www.w3.org/1999/xlink">
 <defs>
  <style type="text/css">
   <![CDATA[
    .fil0 {fill:white}
   ]]>
  </style>
 </defs>
 <g id="Слой_x0020_1">
  <metadata id="CorelCorpID_0Corel-Layer"/>
  <path class="fil0" d="M0 63l1330 0 0 -63 -241 22c-10,1 -24,3 -35,3l0 -25c-10,0 -169,28 -194,31 -42,6 -101,16 -146,24l-49 7c-4,0 -7,-1 -12,-2 -4,0 -8,-1 -12,-1 -113,-19 -226,-37 -340,-55 -8,-2 -17,-4 -25,-4l0 25 -276 -25 0 63z"/>
 </g>
</svg>
